<svg width="151" height="90" viewBox="0 0 151 90" fill="none" xmlns="http://www.w3.org/2000/svg">
<path d="M13.9974 59.536C10.4774 59.536 7.46938 58.736 4.97338 57.136C2.47738 55.536 0.973376 52.784 0.461375 48.88C0.397375 48.624 0.365375 48.368 0.365375 48.112C0.365375 47.856 0.365375 47.6 0.365375 47.344C0.365375 45.168 0.749375 42.96 1.51738 40.72C2.34938 38.416 3.30938 36.176 4.39738 34C5.54938 31.824 6.54138 29.84 7.37338 28.048C6.79738 27.984 6.02938 27.92 5.06938 27.856C4.17338 27.792 3.34138 27.568 2.57338 27.184C1.86938 26.736 1.51738 26.064 1.51738 25.168C1.51738 24.848 1.64538 24.624 1.90138 24.496C2.22138 24.368 2.54138 24.304 2.86138 24.304C3.24538 24.304 3.62938 24.336 4.01338 24.4C4.39738 24.464 4.68538 24.496 4.87738 24.496C6.66938 24.496 8.30138 23.92 9.77338 22.768C11.3094 21.552 12.7174 20.08 13.9974 18.352C15.2774 16.624 16.4614 14.896 17.5494 13.168C18.6374 11.376 19.6614 9.872 20.6214 8.656C20.4294 8.208 20.1734 7.984 19.8534 7.984C19.5334 7.92 19.2454 7.824 18.9894 7.696C18.7334 7.504 18.5414 7.024 18.4134 6.256C18.2854 5.232 18.8294 4.4 20.0454 3.76C21.2614 3.12 22.8614 2.608 24.8454 2.224C26.8294 1.84 28.9414 1.552 31.1814 1.36C33.4854 1.168 35.6294 1.07199 37.6134 1.07199C39.6614 1.008 41.2934 0.975996 42.5094 0.975996C44.9414 0.975996 47.4054 1.008 49.9014 1.07199C52.3974 1.136 54.8934 1.392 57.3894 1.84C58.4134 2.096 59.1174 2.512 59.5014 3.088C59.9494 3.664 60.1734 4.208 60.1734 4.72C60.1734 5.168 60.0134 5.584 59.6934 5.96799C59.4374 6.288 59.1174 6.448 58.7334 6.448C58.0934 6.448 57.5494 6 57.1014 5.104C56.0774 4.656 54.7974 4.432 53.2614 4.432C51.7894 4.368 50.5414 4.336 49.5174 4.336C48.5574 4.336 47.1494 4.4 45.2934 4.528C43.4374 4.592 41.4534 4.72 39.3414 4.912C37.2934 5.04 35.4054 5.264 33.6774 5.584C32.0134 5.904 30.8294 6.32 30.1254 6.832C29.4854 7.216 28.5254 8.112 27.2454 9.52C26.0294 10.864 24.7174 12.4 23.3094 14.128C21.9014 15.856 20.5894 17.488 19.3734 19.024C18.1574 20.56 17.2614 21.712 16.6854 22.48C20.3974 22.544 24.0774 22.416 27.7254 22.096C31.3734 21.776 35.0534 21.616 38.7654 21.616H42.3174C43.4694 21.616 44.6214 21.648 45.7734 21.712C46.9894 21.712 48.1734 21.776 49.3254 21.904C50.0934 21.968 50.4774 22.128 50.4774 22.384C50.4774 22.576 50.2214 22.8 49.7094 23.056C49.1974 23.312 48.6534 23.536 48.0774 23.728C47.5654 23.92 47.1814 24.048 46.9254 24.112C43.2774 24.688 39.4694 25.008 35.5014 25.072C31.5334 25.136 27.5974 25.328 23.6934 25.648C19.8534 25.904 16.2054 26.768 12.7494 28.24C12.4934 28.816 11.9494 29.84 11.1174 31.312C10.3494 32.784 9.51738 34.48 8.62138 36.4C7.72538 38.32 6.92538 40.304 6.22137 42.352C5.58138 44.4 5.26138 46.352 5.26138 48.208C5.26138 50.384 5.90138 52.208 7.18138 53.68C8.52538 55.088 10.8934 55.792 14.2854 55.792C17.1654 55.792 20.4294 55.344 24.0774 54.448C27.7254 53.552 31.4374 52.432 35.2134 51.088C38.9894 49.68 42.5414 48.208 45.8694 46.672C49.2614 45.136 52.1414 43.696 54.5094 42.352C54.8934 42.16 55.1494 42.064 55.2774 42.064C55.4694 42.064 55.5654 42.192 55.5654 42.448C55.5654 42.768 55.4374 43.088 55.1814 43.408C54.1574 44.88 52.3974 46.384 49.9014 47.92C47.4694 49.456 44.6214 50.928 41.3574 52.336C38.0934 53.68 34.7334 54.896 31.2774 55.984C27.8854 57.072 24.6534 57.936 21.5814 58.576C18.5094 59.216 15.9814 59.536 13.9974 59.536ZM74.5606 21.808C73.0886 21.808 72.3526 21.264 72.3526 20.176C72.3526 19.408 72.7686 18.576 73.6006 17.68C74.4326 16.784 75.6486 16.144 77.2486 15.76C78.2086 15.504 78.9766 15.376 79.5526 15.376C80.1926 15.312 80.8006 15.184 81.3766 14.992C81.1206 16.208 80.5766 17.52 79.7446 18.928C78.9766 20.336 77.9526 21.2 76.6726 21.52C76.0326 21.712 75.3286 21.808 74.5606 21.808ZM59.2006 60.016C58.1766 60.016 57.2166 59.6 56.3206 58.768C55.4886 57.936 54.9766 57.04 54.7846 56.08C54.9766 54.864 55.3926 53.392 56.0326 51.664C56.7366 49.872 57.5366 48.016 58.4326 46.096C59.3286 44.176 60.2246 42.384 61.1206 40.72C62.0166 38.992 62.7846 37.616 63.4246 36.592C62.2086 37.68 60.8966 38.896 59.4886 40.24C58.1446 41.584 56.8646 42.832 55.6486 43.984C55.5846 44.048 55.4246 44.176 55.1686 44.368C54.9766 44.56 54.7846 44.656 54.5926 44.656C54.1446 44.656 53.9206 44.464 53.9206 44.08C53.9206 43.76 54.0486 43.472 54.3046 43.216C56.0326 41.296 57.8246 39.376 59.6806 37.456C61.6006 35.536 63.4566 33.552 65.2486 31.504C65.8246 30.8 66.3046 30.256 66.6886 29.872C67.1366 29.424 67.8086 29.2 68.7046 29.2C69.0886 29.2 69.6646 29.296 70.4326 29.488C71.2646 29.616 71.9366 29.872 72.4486 30.256C73.0246 30.64 73.1206 31.12 72.7366 31.696C72.2886 32.4 71.5206 33.552 70.4326 35.152C69.3446 36.752 68.0966 38.576 66.6886 40.624C65.3446 42.672 64.0006 44.752 62.6566 46.864C61.3766 48.912 60.3206 50.768 59.4886 52.432C58.6566 54.096 58.2406 55.344 58.2406 56.176C58.2406 56.56 58.3686 56.752 58.6246 56.752C59.0086 56.752 59.6486 56.4 60.5446 55.696C61.5046 54.992 62.4326 54.256 63.3286 53.488C64.2886 52.656 64.9286 52.112 65.2486 51.856C67.1046 50.256 68.9286 48.624 70.7206 46.96C72.5126 45.232 74.2086 43.44 75.8086 41.584C75.9366 41.456 76.0966 41.264 76.2886 41.008C76.5446 40.752 76.8006 40.624 77.0566 40.624C77.3766 40.624 77.5366 40.816 77.5366 41.2C77.5366 41.648 77.3766 42.096 77.0566 42.544C76.2246 43.568 75.2966 44.592 74.2726 45.616C73.2486 46.576 72.2886 47.536 71.3926 48.496C69.7286 50.16 68.0966 51.824 66.4966 53.488C64.9606 55.088 63.4246 56.752 61.8886 58.48C61.5686 58.864 61.1526 59.216 60.6406 59.536C60.1926 59.856 59.7126 60.016 59.2006 60.016ZM68.3191 89.104C65.8231 89.104 64.1271 88.368 63.2311 86.896C62.2711 85.424 61.7911 83.632 61.7911 81.52C61.7911 79.856 61.9831 78.128 62.3671 76.336C62.7511 74.608 63.1671 73.04 63.6151 71.632C65.8551 64.208 68.8951 57.232 72.7351 50.704C76.6391 44.112 81.2471 38 86.5591 32.368C86.2391 31.92 85.7591 31.44 85.1191 30.928C84.5431 30.416 84.2551 29.904 84.2551 29.392C84.2551 28.752 84.4471 28.336 84.8311 28.144C85.2151 27.888 85.6631 27.76 86.1751 27.76C86.3031 27.76 86.8151 27.824 87.7111 27.952C88.6711 28.016 89.5351 28.336 90.3031 28.912L95.3911 23.632C95.7751 23.248 96.1271 22.864 96.4471 22.48C96.7671 22.032 97.1191 21.648 97.5031 21.328C97.8231 21.008 98.1431 20.752 98.4631 20.56C98.8471 20.368 99.2631 20.272 99.7111 20.272C100.415 20.272 100.927 20.528 101.247 21.04C101.567 21.488 101.727 22 101.727 22.576C101.727 23.216 101.567 23.792 101.247 24.304C100.927 24.752 100.511 25.232 99.9991 25.744C98.9751 26.768 97.8231 27.824 96.5431 28.912C95.2631 30 94.3031 30.96 93.6631 31.792C94.6871 32.752 95.5191 33.68 96.1591 34.576C96.7991 35.408 97.3431 36.464 97.7911 37.744C97.9831 38.384 98.1431 39.024 98.2711 39.664C98.3991 40.304 98.4631 40.976 98.4631 41.68C98.4631 44.112 97.7911 46.384 96.4471 48.496C95.1671 50.608 93.4391 52.464 91.2631 54.064C89.0871 55.6 86.7191 56.816 84.1591 57.712C81.5991 58.608 79.1031 59.056 76.6711 59.056C76.0311 59.056 75.3591 58.928 74.6551 58.672C74.0151 58.48 73.4391 58.16 72.9271 57.712C72.0951 59.12 71.2631 60.912 70.4311 63.088C69.5991 65.328 68.8311 67.632 68.1271 70C67.4231 72.432 66.8791 74.704 66.4951 76.816C66.0471 78.992 65.8231 80.72 65.8231 82C65.8231 83.344 66.0471 84.4 66.4951 85.168C66.9431 86 67.7111 86.416 68.7991 86.416C68.9911 86.416 69.5031 86.384 70.3351 86.32C71.2311 86.32 72.0311 86.128 72.7351 85.744C72.8631 86.64 72.4791 87.408 71.5831 88.048C70.6871 88.752 69.5991 89.104 68.3191 89.104ZM79.6471 56.848C79.9671 56.848 80.2551 56.848 80.5111 56.848C80.8311 56.784 81.1191 56.72 81.3751 56.656C83.5511 56.272 85.5991 55.504 87.5191 54.352C89.4391 53.2 90.9751 51.696 92.1271 49.84C93.3431 47.92 93.9511 45.744 93.9511 43.312C93.9511 41.84 93.5991 40.272 92.8951 38.608C92.2551 36.88 91.1991 35.568 89.7271 34.672C87.3591 37.104 84.7031 40.112 81.7591 43.696C78.8791 47.216 76.2871 51.056 73.9831 55.216C74.3031 54.896 74.5911 54.736 74.8471 54.736C75.1671 54.736 75.4551 54.864 75.7111 55.12C76.0311 55.376 76.2231 55.568 76.2871 55.696C77.0551 56.464 78.1751 56.848 79.6471 56.848ZM102.608 57.616C101.584 57.424 100.848 57.328 100.4 57.328C100.016 57.328 99.4724 56.816 98.7684 55.792C98.7044 55.664 98.6404 55.504 98.5764 55.312C98.5764 55.12 98.5764 54.96 98.5764 54.832C98.5764 53.872 98.8644 52.464 99.4404 50.608C100.08 48.752 100.816 46.768 101.648 44.656C102.544 42.544 103.408 40.592 104.24 38.8C105.072 36.944 105.712 35.504 106.16 34.48C106.288 34.224 106.352 34.032 106.352 33.904C106.352 33.584 106.16 33.424 105.776 33.424C105.456 33.36 105.296 33.104 105.296 32.656C105.616 32.144 106.032 31.504 106.544 30.736C107.12 29.968 107.728 29.296 108.368 28.72C109.072 28.144 109.744 27.856 110.384 27.856C110.896 27.856 111.568 28.24 112.4 29.008C113.232 29.712 113.648 30.32 113.648 30.832C113.648 30.896 113.616 30.96 113.552 31.024C113.552 31.024 113.552 31.056 113.552 31.12C112.592 32.144 111.6 33.552 110.576 35.344C109.552 37.136 108.592 39.088 107.696 41.2C106.8 43.248 106.032 45.264 105.392 47.248C104.816 49.232 104.432 50.928 104.24 52.336C107.248 49.52 110.352 46.576 113.552 43.504C116.752 40.368 119.536 37.168 121.904 33.904C122.096 32.752 122.256 31.696 122.384 30.736C122.576 29.712 122.96 28.528 123.536 27.184C123.856 26.48 124.272 25.904 124.784 25.456C125.296 24.944 125.936 24.688 126.704 24.688C127.408 24.688 128.048 24.912 128.624 25.36C129.264 25.808 129.584 26.384 129.584 27.088C129.584 27.92 129.264 28.688 128.624 29.392C127.984 30.096 127.344 30.992 126.704 32.08C126.064 33.168 125.744 34.704 125.744 36.688V37.072C125.744 37.328 125.712 37.648 125.648 38.032C125.584 38.416 125.392 38.608 125.072 38.608C124.624 38.608 124.144 38.352 123.632 37.84C123.12 37.328 122.832 36.848 122.768 36.4C119.504 40.048 116.24 43.696 112.976 47.344C109.712 50.928 106.256 54.352 102.608 57.616ZM143.748 21.808C142.276 21.808 141.54 21.264 141.54 20.176C141.54 19.408 141.956 18.576 142.788 17.68C143.62 16.784 144.836 16.144 146.436 15.76C147.396 15.504 148.164 15.376 148.74 15.376C149.38 15.312 149.988 15.184 150.564 14.992C150.308 16.208 149.764 17.52 148.932 18.928C148.164 20.336 147.14 21.2 145.86 21.52C145.22 21.712 144.516 21.808 143.748 21.808ZM128.388 60.016C127.364 60.016 126.404 59.6 125.508 58.768C124.676 57.936 124.164 57.04 123.972 56.08C124.164 54.864 124.58 53.392 125.22 51.664C125.924 49.872 126.724 48.016 127.62 46.096C128.516 44.176 129.412 42.384 130.308 40.72C131.204 38.992 131.972 37.616 132.612 36.592C131.396 37.68 130.084 38.896 128.676 40.24C127.332 41.584 126.052 42.832 124.836 43.984C124.772 44.048 124.612 44.176 124.356 44.368C124.164 44.56 123.972 44.656 123.78 44.656C123.332 44.656 123.108 44.464 123.108 44.08C123.108 43.76 123.236 43.472 123.492 43.216C125.22 41.296 127.012 39.376 128.868 37.456C130.788 35.536 132.644 33.552 134.436 31.504C135.012 30.8 135.492 30.256 135.876 29.872C136.324 29.424 136.996 29.2 137.892 29.2C138.276 29.2 138.852 29.296 139.62 29.488C140.452 29.616 141.124 29.872 141.636 30.256C142.212 30.64 142.308 31.12 141.924 31.696C141.476 32.4 140.708 33.552 139.62 35.152C138.532 36.752 137.284 38.576 135.876 40.624C134.532 42.672 133.188 44.752 131.844 46.864C130.564 48.912 129.508 50.768 128.676 52.432C127.844 54.096 127.428 55.344 127.428 56.176C127.428 56.56 127.556 56.752 127.812 56.752C128.196 56.752 128.836 56.4 129.732 55.696C130.692 54.992 131.62 54.256 132.516 53.488C133.476 52.656 134.116 52.112 134.436 51.856C136.292 50.256 138.116 48.624 139.908 46.96C141.7 45.232 143.396 43.44 144.996 41.584C145.124 41.456 145.284 41.264 145.476 41.008C145.732 40.752 145.988 40.624 146.244 40.624C146.564 40.624 146.724 40.816 146.724 41.2C146.724 41.648 146.564 42.096 146.244 42.544C145.412 43.568 144.484 44.592 143.46 45.616C142.436 46.576 141.476 47.536 140.58 48.496C138.916 50.16 137.284 51.824 135.684 53.488C134.148 55.088 132.612 56.752 131.076 58.48C130.756 58.864 130.34 59.216 129.828 59.536C129.38 59.856 128.9 60.016 128.388 60.016Z" fill="white"/>
</svg>
